/* XPM */
static const char *team_logo_xpm[] = {
"256 64 20 1 ",
"  c #000418",
". c #001127",
"X c #00162E",
"o c #011B33",
"O c #022139",
"+ c #01233C",
"@ c #6C2731",
"# c #1F384D",
"$ c #0C537C",
"% c #44596A",
"& c #A92C2D",
"* c #EF2B25",
"= c #F7695B",
"- c #697D8E",
"; c #1093DC",
": c #29BEFC",
"> c #8E9FAC",
", c #B6C4CF",
"< c #D7E0E6",
"1 c #FDFEFE",
/* pixels */
"++++++++++++++++++++++++++++++++++++++++++++++++++++++++++++++++++++++++++++++++++++++++++++++++++++++++++++++++++++++++++++++++++++++++++++++++++++++++++++++++++++++++++++++++++++++++++++++++++++++++++++++++++++++++++++++++++++++++++++++++++++++++++++++++",
"++++++++++++++++++++++++++++++++++++++++++++++++++++++++++++++OOo.oO+OOOO+++++++++++++++++++++++++++++++++++++++++++++++++++++++++++++++++++++++++++++++++++++++++++++++++++++++++++++++++++++++++++++++++++++++++++++++++++++++++++++++++++++++++++++++++++++++",
"++++++++++++++++++++++++++++++++++++++++++++++++++++++++++++++O.+>,+o+OOOO++++++++++++++++++++++++++++++++++++++++++++++++++++++++++++++++++++++++++++++++++++++++++++++++++++++++++++++++++++++++++++++++++++++++++++++++++++++++++++++++++++++++++++++++++++++",
"++++++++++++++++++++++++++++++++++++++++++++++++++++++++++++++.%<11- .XX++O++++OOOOOO+++++++++++++++++++++++++++++++++++++++++++++++++++++++++++++++++++++++++++++++++++++++++++++++++++++++++++++++++++++++++++++++++++++++++++++++++++++++++++++++++++++++++++",
"+++++++++++++++++++++++++++++++++++++++++++++++++++++++OOOOO+.%11111,-%%,-oOOOOOOOOOO++++++++++O++++++++++++++++++++++++++++++++++++++++++++++++++++++++++++++++++++++++++++++++++++++++++++++++++++++++++++++++++++++++++++++++++++++++++++++++++++++++++++++++",
"++++++++++++++++++++++++++++++++++OoOOOOOOOOOOOOOOOOOOOoooOOo#111111111<<>%oOOooooooOOOO+++++++oooOOOOO+++++++++++++++++++++++++++++++++++++++++++++++++++++++++++++++++++++++++++++++++++++++++++++++++++++++++++++++++++++++++++++++++++++++++++++++++++++++++",
"++++++++++++++++++++++++++++++++OX#%@@@@@@@@@@@@@@@@@@@@@@#O.>111111111<,,-#oO@@@@@@@@@@@@@@@@@@@@@@@@@OO+++++++++++++++++++++++++++++++++++++++++++++++++++++++++++++++++++++++++++++++++++++++++++++++++++++++++++++++++++++++++++++++++++++++++++++++++++++++",
"++++++++++++++++++++++++++++++OOo%========================#OX%1111111111<<>#oO&=========*******=========@OO++++++++++++++++++++++++++++++++OOOOO+++++++++++++++++++++++++++++++++++++++++++++++++++OOOO+++++++++++++OOOO++++++++++++++++++++++++++++++++++++++++",
"+++++++++++++++++++++++++++++++o-==**********************&++o#<>-,11111>%>%XOO@**************************@O++++++++++++++++++++++++++++++OXo+++oX+XXXXO++++oXXXO+XXXXXXXXo+++++XXXo+++++oXXX+++++oo+++OXO+++++++++OXo++OX+++++oXXXXXXXoO++++++++++++++++++++++++",
"++++++++++++++++++++++++++++++o%==***********************&O+.>-  %11111#.XoOOO#*************************&&@+++++++++++++++++++++++++++++oO%,<<<,-+->>>#O++o%>>>#o->>>>>>-#X++++->>-O+++o%>>-+O+Oo%><<<,-#O+++++++o+-,<<,%oO++O->>>>>>-%+X+++++++++++++++++++++++",
"+++++++++++++++++++++++++++++++==************************@OO+,#oOo<111,XOOOOO+O**************************&&O+++++++++++++++++++++++++++o#,1111111#,111-X++X>111#o<1111111<-o+OO<11,o+++.>111#o+o-1111111-X++++++O#,111111-X++o,11111111,%X++++++++++++++++++++++",
"+++++++++++++++++++++++++++++o#=*************************@+O+%oOO.-1<1%XOOOOO+O**************************&&@++++++++++++++++++++++++++o+,11111111#%111>X+O+<11,X+<111111111%XOO,11,o+++X>11<#oX%11111111-X++++++X-11111111%o+o,1111111111%X+++++++++++++++++++++",
"+++++++++++++++++++++++++++++o%=******<<=****************@+OO..o+X><,<-XOo.oO+O******************=<<******&@++++++++++++++++++++++++++X>111111111#+111<+OX%111-.+<111111111,oOO,11,o+++X>11<#o+<11111111-X++++++X>11111111>X+o,11111111111#o++++++++++++++++++++",
"+++++++++++++++++++++++++++++o&=***<<<11<****************@+Oo#-# %<,,,,+.#-#o+O******************,11<<<***&@+++++++++++++++++++++++++X%11111<>,11#.,111%oX-111#o+<11,--,1111#oO,11,o+++X>11<#.%1111>%-,1>X++++++X>1<-%>111<+Oo,111,,<11111,o++++++++++++++++++++",
"+++++++++++++++++++++++++++++O&=**<11<11<****************@OOo>1<>,<,,,<>><<-oO#******************<11<11<**&@+++++++++++++++++++++++++X,1111%+XO#>#.-111-.o,11,oO+<11> .+<111%XO,11,o+++X>11<#.-111>.XXX--o++++++X>,+XXX,111#oo,11,+O+%<1111#o+++++++++++++++++++",
"+++++++++++++++++++++++++++++O&=**11<*=<<=***************&OX%<,<1<,,,,,<<,>-+O@*****************=<<=*<11**&@++++++++++++++++++++++++o#1111%.O+Ooo+o#111,X#111-XO+<11>X+.>111%XO,11,o+++X>11<#.>111%X++Oo++++++++O%#o++.-111#oo,11,OoO.%1111-X+++++++++++++++++++",
"+++++++++++++++++++++++++++++O&=**<1***=11=***************Oo%<,,,,,,,,,,,,>-o+@****************=11=***1<**&@++++++++++++++++++++++++X-111,XO++++O++o,111+%111#oO+<11>X+X-111%XO,11,o+++X>11<#.>111-.+++++++++++++oO+++X-111#oo,11,+O++.>111>X+++++++++++++++++++",
"+++++++++++++++++++++++++++++O&=**,<****11,***************#Oo><,,,<<<<,,<>>#o+&****************=11=***,,**&@++++++++++++++++++++++++X>111%X++++++++X-111%>11,o+O+<11>X+.>111#XO,11,o+++X>11<#.-111<%.O++++++++++++++++X>11<#oo,11,+O++o#111,OO++++++++++++++++++",
"+++++++++++++++++++++++++++++O&=**<<****11,***************&OX%<,,<,>>>,<,>-o+#*****************=11=***<<**&@++++++++++++++++++++++++o,111#o++++++++o#111>,11-X+O+<11> .#<11<+oO,11,o+++X>11<#X%1111<-oo++++++++++++++o+<11,OOo,11,+O++O+<11<+O++++++++++++++++++",
"+++++++++++++++++++++++++++++O&=**11=**=<<=****************#+X-,,,#.Xo>,>-#o+&*****************=<<=**=11**&@+++++++++++++++++++++++O+,11<+O++++++++Oo,11<111#o+O+<11,--<111-XOO,11,o+++X>11<#oO,11111,#X+++++++++++++.-111-X+o,11,+O++Oo,11<#O++++++++++++++++++",
"+++++++++++++++++++++++++++++O&=**111=<1<******************&OOo-<-.O+X%>-#XO@********************<1<,111**&@+++++++++++++++++++++++O+<11,OO+++++++++X-11111,o++O+<11111111<+OOO,11,o+++X>11<#oX%111111<#o+++++++++++X%1111#o+o,11,+O+++o,11<#O++++++++++++++++++",
"+++++++++++++++++++++++++++++O&=**=11111<*******************@+Oo%#OOO+--#o+#*********************,11111=**&@+++++++++++++++++++++++O+<11,OO+++++++++o#11111-X++O+<1111111,#o+OO<11,o+++X>11<#o+X-111111,+O+++++++++X#<111>X++o,11,+O+++o,11<#O++++++++++++++++++",
"+++++++++++++++++++++++++++++O&=***===11=********************OoOXO+OO##ooOO@*********************=11,==***&@+++++++++++++++++++++++O+<11<OO+++++++++Oo,1111#o++O+<1111111%.++OO,11,o+++X>11<#o+OX%<11111-X++++++++o#<111,+o++o,11,+O++OO,11<+O++++++++++++++++++",
"+++++++++++++++++++++++++++++O&=******==********************@+#Xo++OOOoOX++O&*********************==******&@+++++++++++++++++++++++O+<11<+O++++++++++X-111,o+++O+<11<,111<#o+OO,11,o+++X>11<#o+++X#>1111,OO++++++Oo,111<#o+++o,11,+O++O+<11<+O++++++++++++++++++",
"+++++++++++++++++++++++++++++O&=**************************&#Oo,>#..XXX.O%>#OO@****************************&@++++++++++++++++++++++++o,111%X++++++++++o%111-X+++O+<11> -111>X+Oo,11,OO++X>11<+O++++oX>1111#o++++++X-111<#X++++o,11,+O++o%111,o+++++++++++++++++++",
"+++++++++++++++++++++++++++++O&=*************************@OOOo,11>-%%%><,>+OOOO&**************************&@++++++++++++++++++++++++X>111>.++++++++++o#111-X+++O+<11>.+<111#o+X>11<+O++o,11<+OoO+++oo,111#o+++++o#<111%X+++++o,11,+O++.>111-X+++++++++++++++++++",
"+++++++++++++++++++++++++++++O&=************************@+oO+o,<<111111<>-#O+o+#**************************&@++++++++++++++++++++++++X-111<#X+++oo++++o#111-X+++O+<11>X.-111-X+X>111%X+o+<11,oO#+o+++.>111%o+++++X-111-.++++++o,11,OOOX#1111%X+++++++++++++++++++",
"+++++++++++++++++++++++++++++O&=***********************&Oo#>+o,<,,,,,,,,>-#X-%X+@*************************&@++++++++++++++++++++++++o#1111,#XXo#-#o++o#111-X+++O+<11>Xo#111<+OX-111,O.X>111>XX>>OXoXX,111#o+++++o,11,XXooooO+o,11,oXo#<111<+O+++++++++++++++++++",
"+++++++++++++++++++++++++++++O&=***********************O+o,,oo,<,<>%#><<>-#.-,#oO&************************&@+++++++++++++++++++++++++X,1111<>-><1#o++o#111-X+++O+<11>X+X>111%Xo#1111,-,1111%XX-1,-#%>111<+O++++o#<11<>>>>>>#oo,11<>>,11111-X++++++++++++++++++++",
"+++++++++++++++++++++++++++++O&=**********************#+.-<>oo,<,,#$;;,<>-#.-<>oOO&***********************&@+++++++++++++++++++++++++o%1111111111#o++o#111-X+++O+<11>X+X%111,oOo,111111111<+OX-111111111>X+++++o%1111111111%Xo,1111111111,OO++++++++++++++++++++",
"+++++++++++++++++++++++++++++O&=*********************@+X%<,%oo,<<-%,;;:<>-#o#,<-X+#***********************&@++++++++++++++++++++++++++X>111111111#o++o#111-X+++O+<11>X+O+<111#oX%111111111-X+X-111111111%o+++++X%1111111111%oo,111111111<#o+++++++++++++++++++++",
"+++++++++++++++++++++++++++++O&=********************&Oo#<<-XOo,<<-$:;;;<>-#OX%<,#X+@**********************&@++++++++++++++++++++++++++Oo>11111111#o++o#111-X+++O+<11>X++X-111>XOX-1111111>oO+X-11111111-X++++++X%1111111111%Xo,11111111,#X++++++++++++++++++++++",
"+++++++++++++++++++++++++++++O&=********************OOX><>OoOO,<<>$;;$:<>-#oOX-<>+oO&*********************&@+++++++++++++++++++++++++++Oo%,<11<,%++++o#,,,%o+++O+>,,-o++o#,,,>+OOo-,111,-oO++O+-,<11<,%X+++++++o%,,,,,,,,,,#oo-,,,,,,>%Oo+++++++++++++++++++++++",
"+++++++++++++++++++++++++++++O&=*******************@+.-<,#XO+O,<,,$##$,<>-#O+OO><>oO#*********************&@++++++++++++++++++++++++++++OXO####oX++++++oooO++++++oooO++++OoooO++++X+###+XO++++OXO####Oo+++++++++Ooooooooooo+++OoooooooXO++++++++++++++++++++++++",
"+++++++++++++++++++++++++++++O&=*******************Oo%<,%X+@OO,<,,,;;:,<>-#O@Oo#,<-o+&********************&@++++++++++++++++++++++++++++++OooooO+++++++OOO++++++++OO++++++OOO++++++OoooO++++++++OooooO+++++++++++OOOOOOOOOO++++OOOOOO+++++++++++++++++++++++++++",
"+++++++++++++++++++++++++++++O&=******************&O+,<-X+@*OO,<,,,,,,,,>-#O&&OX%<,#o@********************&@++++++++++++++++++++++++++++++++++++++++++++++++++++++++++++++++++++++++++++++++++++++++++++++++++++++++++++++++++++++++++++++++++++++++++++++++++++",
"+++++++++++++++++++++++++++++O&=*****************&#O+>>+OO**OO,,,,,,,,,,>-#O@*@OX->#oO@*******************&@++++++++++++++++++++++++++++++++++++++++++++++++++++++++++++++++++++++++++++++++++++++++++++++++++++++++++++++++++++++++++++++++++++++++++++++++++++",
"+++++++++++++++++++++++++++++O&=****************&OOOO##oO&*&O+############++@**#OO#+OOO@******************&@++++++++++++++++++++++++++++++++++++++++++++++++++++++++++++++++++++++++++++++++++++++++++++++++++++++++++++++++++++++++++++++++++++++++++++++++++++",
"+++++++++++++++++++++++++++++O&=***************&OOooXoo+@**&O+ooooooooooooO+@**&OOOooOoO&*****************&@++++++++++++++++++++++++++++++++++++++++++++++++++++++++++++++++++++++++++++++++++++++++++++++++++++++++++++++++++++++++++++++++++++++++++++++++++++",
"+++++++++++++++++++++++++++++O&=***************@+O,,%X+#***&++oXoooooooooo++@***@+o#,,#o#*****************&@++++++++++++++++++++++++++OOOOO+++++++++++++++++++++++++++++++++++++++++++++++++++++++++++++++++++++++++++++++++++++++++++++++++++++++++++++++++++++",
"+++++++++++++++++++++++++++++O&=***************#o%<<<#o#****OO>>>>>>>>>>--#O@***@O+,<<%XO*****************&@++++++++++++++++++++++++++OOOOOOOO++++OOOO+O++++++OO++++OOO++++++++OO+++++++OO+++++OO+OOOOO++OOOO+++++OO+OOO+++OO++++++++O++++++++++++++++++++++++++",
"+++++++++++++++++++++++++++++O&=***************OX%<,<-XO***&O+,<,,,,,,<<,>#O@***#o%<,,%oO&****************&@++++++++++++++++++++++++++++++OOOO++++OOO++OXX.o+OOOOOo.OO+O++o..OOO+o.XX.oOOOO+O+o..++OO+O.XO+OO+oX.XO++O+oXXXXo++++++++O++++++++++++++++++++++++++",
"+++++++++++++++++++++++++++++O&=**************@+X%<,,%oO****++,<>%####-1,-#O@***@o%<,,%o+#****************&@++++++++++++++++++++++++++++++OOOOOOOO++++O+%%%#XOOOOo#%oO+++o#--OXOo#%%%%#oOOO++.#-%X+OOOo%-+o++o#%%#X++Oo#%%%%#O+++++++O++++++++++++++++++++++++++",
"+++++++++++++++++++++++++++++O&=*************&O+o#<<>#o#-->-OO,<>#XooX#<,>#X%>->#o#,<,#oOO@***************&@++++++++++++++++++++++++++++++OOOOOOOO++++X%1111-XOO+.-1#o++o#<11,#o.>1111-.OOO+X%<11-XO+X>11,Oo+.>111>o+O.>1111-.+++++++O++++++++++++++++++++++++++",
"+++++++++++++++++++++++++++++O&=*************#+oOo%-%oX$:::;O+,,-#OO+Oo,<>#.$:::;Xo%,-oOo+O&**************&@++++++++++++++++++++++++++++++OOOOOOOO++++.-1111<#oO+.>1%X++.>1111%..,1111>.O++oO<1111#oX%1111>.+X>1111-XOX,1111>.+++++++O++++++++++++++++++++++++++",
"+++++++++++++++++++++++++++++O&=************@+o$#ooooOo;:::;o+,,-Oo;;+.><>#.$::::+ooooOO$O+@**************&@++++++++++++++++++++++++++++++OOOOOOOO++++X-1,><1%XO+o<1>.+++<1>,<#X.,1>>>%XO++.%1<-<1#Xo,1,>1<#OX>1><1<OOX,1>>>%X+++++++O++++++++++++++++++++++++++",
"+++++++++++++++++++++++++++++O&=***********&+O+:;oXoX.$::::;o+,,%X#::$.%1>#.$::::;o.oo.$:$oO&*************&@++++++++++++++++++++++++++++++OOOOOOOO++++X-1% %1-.Oo#11,oOo#1, X%oo.,<oX.XOO+O.>1% #>Oo#1,. >1%X.,<.X,1%.X,1+X.X++++++++O++++++++++++++++++++++++++",
"+++++++++++++++++++++++++++++O&=***********#+X$::;$#%><<<11>X+>>#.$::$.#,-#.-<1<<<,%##$::;oOO*************&@++++++++++++++++++++++++++++++OOOOOOOO++O+X-1# %1-XO.-111#oo#1, .XooX,<..XOOO+Oo<<ooX.OX%1-..%1-X.,<o %1-.X,1o.oO++++++++O++++++++++++++++++++++++++",
"+++++++++++++++++++++++++++++O&=**********@+O#::::::11111<%OO++++X$::;OO+++OO#>11111,:::::$X+@************&@+++++++++++++++++++++++++++++++OOOOOO+++++X-1>-<1%X+X>1>1%.oO<1>#XooX,1--%oOO+O#1,.O+OO.-1%.o#1>..,<oX#1>.X,1--%O++++++++O++++++++++++++++++++++++++",
"+++++++++++++++++++++++++++++O&=**********O+X;:::::<1<::>#.oooooOo><<,#ooooooo.-::,11:::::;OO+&***********&@+++++++++++++++++++++++++++++++OOOOOO+++++X-1111<OOOO<<%1>.o.>111-ooX,111,XOO+O#1>.OOOO.>1#XO+<,X.,<oo+<,..>111<+O+++++++O++++++++++++++++++++++++++",
"+++++++++++++++++++++++++++++O&=*********@+o#::::::11:::$.o+###+OX>11<OoO####oo+:::<1,:::::$X+O***********&@+++++++++++++++++++++++++++++++OOOOOO+++++X-11111%oo#1>O<,Xoo#,111%XX,111,.OO+o#1>.oOO+.>1#XO+<<o.,<Oo+<,XX>111<+O+++++++O++++++++++++++++++++++++++",
"+++++++++++++++++++++++++++++O&=********&++o;:::::<1,:::+X%<<<<,#X#<<-.+,<<<<-XX;:::11::::::+o+@**********&@+++++++++++++++++++++++++++++++OOOO+++++++X-1-#-1>..%1>#,1#XOoO-<1>.o,<--%oOO+o#1,.++O+.-1%XO#1,X.,<OX#1>XX>1--%O++++++++O++++++++++++++++++++++++++",
"+++++++++++++++++++++++++++++O&=********@+X$::::::11:::;OX,<<<<,%.#::$.%<<<<<>+.$:::<1,:::::$X++&*********&@+++++++++++++++++++++++++++++++OOOO+++++++X-1%.o<,X.-11111%.OoX.#1,Xo<,..o+OOOo+<<O+o.O.-1-.o%1>..,<O.%1>.X,1OXoO++++++++O++++++++++++++++++++++++++",
"+++++++++++++++++++++++++++++O&=*******&+OO;:::::<1,:::;oO,,,,,>#X#::$.#,,,,,>#.$::::11:::::;+o++*********&@+++++++++++++++++++++++++++++++OOOO+++++++X-1% o<,XX,11111-.O#o.o1,Xo<,.XXoOOOOo,1% #%oX%1,X >1-X.,<X >1-XX,<ooXo++++++++O++++++++++++++++++++++++++",
"+++++++++++++++++++++++++++++O&=*******#+X$::::::11::::;oO-----%+X$::;Xo%-----+.$::::<1,::::;$o++@********&@+++++++++++++++++++++++++++++++OOOO+++++++X-1>%>1>.+<<->>1,.#<>#>1>.o,<-%%#OOOOX-1,%,1#X#<1-%11#o.,1--11#oX>1%%%#O+++++++O++++++++++++++++++++++++++",
"+++++++++++++++++++++++++++++O&=******@++o;:::::<1,::::;oOXXXXooOo;::;+ooXoXXoOX$:::::11::::;;+O++&*******&@+++++++++++++++++++++++++++++++OOOO+++++OOX-11111%.%1> ..,<o%11111%XX,1111>XOOOo#11111%o.>1111,X+X>1111>.+.>1111>X+++++++O++++++++++++++++++++++++++",
"+++++++++++++++++++++++++++++O&=*****&++OO;:::::11:::::;oXXXXXXXX$;;::;OXXXXXXXX$;::::<1,:::;;+O+++*******&@+++++++++++++++++++++++++++++++OOOO+++++OOX%1111>X.-1%XO.>1#O,111>oO.,1111>XOOO+.-111>oOX#<111%X+.>111,#o+.>1111>X+++++++O++++++++++++++++++++++++++",
"+++++++++++++++++++++++++++++O&=*****#++OO;::::<1,:::::;;;$$$$$$;;;;;;;;$$$$$$;;;;:::::11:::;;+O+++#******&@+++++++++++++++++++++++++++++++OOOO+++++OOo#>>>-Ooo#>#++o%-OXO-,-ooOX%--->%oOOO+O.-,>oo+O.#>,%XO+X%>>-Oo++o%>>>>%o+++++++O++++++++++++++++++++++++++",
"+++++++++++++++++++++++++++++O&=****&+++OO;::::11::::::::::::<<<<<<<<<<<<<<,:::::::::::<1,::;;+O++++@*****&@+++++++++++++++++++++++++++++++OOOOOO++++O+o....o++o.O+++o.OOo.oXoOOOX....o+OOO+Oo.X.oO+OOX..oO+++X...O++++ooXooo++++++++O++++++++++++++++++++++++++",
"+++++++++++++++++++++++++++++O&=****O+++OO;:::<1,:::::::::::<111111111111111::::::::::::11::;;+O+++++*****&@++++++++++++++++++++++++++++++++++++++++++++++++++++O++++++++++O+++++++++++++++++++O+++++++OO+++++++++++++++++++++++++++++++++++++++++++++++++++++++",
"+++++++++++++++++++++++++++++O&=***@+++++O;:::11::::::::::::11::::::::::::<1::::::::::::<1,:;;+O+++++#****&@++++++++++++++++++++++++++++++++++++++++++++++++++++++++++++++++++++++++++++++++++++++++++++++++++++++++++++++++++++++++++++++++++++++++++++++++++++",
"+++++++++++++++++++++++++++++O&=**&++++++o;::<1,:::::::::::,1<;::::::::::;,1<::::::::::::11:;;+O++++++@***&@++++++++++++++++++++++++++++++++++++++++++++++++++++++++++++++++++++++++++++++++++++++++++++++++++++++++++++++++++++++++++++++++++++++++++++++++++++",
"+++++++++++++++++++++++++++++O&=**#++++++O;::11:;;;;;;;;;;;11:;;;;;;;;;;;;:11:;;;;;;;;;;;<1,;;+O+++++++&**&@++++++++++++++++++++++++++++++++++++++++++++++++++++++++++++++++++++++++++++++++++++++++++++++++++++++++++++++++++++++++++++++++++++++++++++++++++++",
"+++++++++++++++++++++++++++++O&=*&++++++++$$%%%$$$$$$$$$$$$%%#$$$$$$$$$$$$$%%$$$$$$$$$$$$#%%$$+++++++++#**&@++++++++++++++++++++++++++++++++++++++++++++++++++++++++++++++++++++++++++++++++++++++++++++++++++++++++++++++++++++++++++++++++++++++++++++++++++++"
};
